<svg width="989" height="745" viewBox="0 0 989 745" fill="none" xmlns="http://www.w3.org/2000/svg">
<g style="mix-blend-mode:multiply">
<path d="M988.701 522.406C988.701 249.379 767.374 28.0479 494.351 28.0479C221.329 28.0479 0 249.379 0 522.406C0 637.027 39.0201 742.526 104.486 826.374H884.217C949.681 742.526 988.703 637.027 988.703 522.406H988.701Z" fill="black" fill-opacity="0.1"/>
</g>
<path d="M295.033 125.146C295.033 125.146 288.537 172.209 232.931 201.598C173.643 232.934 215.787 327.181 318.933 330.369C430.979 333.831 492.165 232.912 408.323 106.453L295.031 125.147L295.033 125.146Z" fill="#3A1616"/>
<path d="M329.741 271.759L330.329 190.516H379.956L381.011 272.696L329.741 271.759Z" fill="#D6906E"/>
<path d="M324.035 214.323C321.408 207.135 341.228 247.644 361.807 245.004C379.457 242.739 382.431 210.966 382.431 210.966C382.431 210.966 374.26 223.057 355.633 223.084C334.857 223.114 324.034 214.322 324.034 214.322L324.035 214.323Z" fill="#3A1616"/>
<path d="M294.455 145.693C300.77 181.912 321.824 212.391 355.583 212.391C389.342 212.391 412.551 182.263 416.711 145.693C421.43 104.201 389.344 79.6978 355.583 79.6978C321.824 79.6978 287.972 108.501 294.455 145.693Z" fill="#3A1616"/>
<path d="M302.765 164.553C302.765 164.553 298.365 157.552 289.286 160.996C280.209 164.439 284.315 186.486 297.931 189.295C297.931 189.295 302.813 190.358 306.641 187.016C306.641 187.016 303.292 170.732 302.765 164.551V164.553Z" fill="#D6906E"/>
<path d="M291.105 168.777C291.105 168.777 298.708 166.24 304.107 177.438" stroke="#161311" stroke-width="0.0142124" stroke-miterlimit="10" stroke-linecap="round" stroke-linejoin="round"/>
<path d="M407.009 164.553C407.009 164.553 411.411 157.552 420.488 160.996C429.566 164.439 425.46 186.486 411.843 189.295C411.843 189.295 406.962 190.358 403.134 187.016C403.134 187.016 406.482 170.732 407.009 164.551V164.553Z" fill="#D6906E"/>
<path d="M418.682 168.777C418.682 168.777 411.078 166.24 405.68 177.438" stroke="#161311" stroke-width="0.0142124" stroke-miterlimit="10" stroke-linecap="round" stroke-linejoin="round"/>
<path d="M301.903 145.587C301.898 159.716 303.361 186.287 312.518 203.831C321.117 220.304 336.422 228.67 355.074 228.68C373.452 228.69 390.285 216.173 397.648 202.031C408.78 180.651 408.248 145.85 408.248 145.85C408.248 145.85 408.248 95.3789 355.652 95.3789C300.256 95.3789 301.901 145.587 301.901 145.587H301.903Z" fill="#D6906E"/>
<path d="M343.231 143.127L314.384 150.579C314.384 150.579 315.695 142.487 327.497 139.547C339.298 136.606 343.233 143.127 343.233 143.127H343.231Z" fill="#1A1A1A"/>
<path d="M361.548 143.128L390.395 150.579C390.395 150.579 389.084 142.487 377.281 139.547C365.481 136.606 361.548 143.128 361.548 143.128Z" fill="#1A1A1A"/>
<path d="M350.722 166.995L349.423 177.303H356.905" stroke="#161311" stroke-width="0.0142124" stroke-miterlimit="10" stroke-linecap="round" stroke-linejoin="round"/>
<path d="M375.321 186.071H333.298C333.298 186.071 334.502 201.528 354.203 201.562C372.36 201.595 375.321 186.071 375.321 186.071Z" fill="white"/>
<path d="M337.272 159.667C337.272 159.667 329.297 155.603 322.547 159.667" stroke="#161311" stroke-width="0.0142124" stroke-miterlimit="10" stroke-linecap="round" stroke-linejoin="round"/>
<path d="M383.142 159.667C383.142 159.667 375.168 155.603 368.418 159.667" stroke="#161311" stroke-width="0.0142124" stroke-miterlimit="10" stroke-linecap="round" stroke-linejoin="round"/>
<path d="M407.029 164.561C407.029 164.561 393.023 136.799 402.806 112.111C402.806 112.111 412.551 112.26 412.207 150.781L407.029 164.561Z" fill="#3A1616"/>
<path d="M302.758 164.561C302.758 164.561 316.72 135.061 306.981 112.111C306.981 112.111 297.235 112.26 297.581 150.781L302.758 164.561Z" fill="#3A1616"/>
<path d="M417.203 133.574C417.203 133.574 341.341 129.08 319.355 98.3391C319.355 98.3391 326.537 79.2056 360.33 84.5055C394.123 89.8055 417.201 133.572 417.201 133.572L417.203 133.574Z" fill="#3A1616"/>
<path d="M350.414 90.4482C350.414 90.4482 328.952 135.033 298.259 133.538C298.259 133.538 315.112 90.8768 350.414 90.4482Z" fill="#3A1616"/>
<path d="M306.515 780.732C306.515 780.732 329.015 669.061 342.256 638.616C343.457 635.854 347.456 636.216 348.254 639.119C351.443 650.722 355.645 684.915 353.769 785.553L353.813 826.689H442.173L456.01 727.69C456.72 720.1 485.086 596.018 413.805 500.339H275.479C275.479 500.339 219.557 596.531 211.842 714.188C210.126 740.366 209.514 780.349 205.952 826.689H296.709L306.515 780.73V780.732Z" fill="#6E59A0"/>
<path d="M304.078 620.533L349.477 639.084" stroke="#523D85" stroke-width="0.0276677" stroke-miterlimit="10"/>
<path d="M238.949 286.059C238.949 286.059 209.976 290.177 188.777 362.746L245.863 395.467L279.549 349.138L238.949 286.058V286.059Z" fill="#DD4B87"/>
<path d="M245.866 395.469C245.866 395.469 207.96 454.912 198.966 465.604C189.662 476.661 175.573 482.139 163.318 474.479C152.29 467.585 148.203 453.505 153.826 441.778L193.182 364.948L245.868 395.469H245.866Z" fill="#D6906E"/>
<path d="M154.338 286.138L199.722 433.84L151.32 454.888L122.214 288.338L154.338 286.138Z" fill="#D6906E"/>
<path d="M151.237 293.511L158.324 286.68C163.519 281.673 166.739 274.962 167.393 267.776L169.219 247.743C169.219 247.743 170.369 237.196 149.386 239.845C128.403 242.493 127.165 242.625 127.411 248.853C127.411 248.853 131.249 257.495 144.777 259.245L151.237 293.511Z" fill="#D6906E"/>
<path d="M124.665 296.535C124.665 296.535 103.946 285.056 102.981 248.763C102.869 244.582 104.942 240.615 108.435 238.318C113.812 234.782 129.301 225.884 137.61 231.57L152.157 250.348L151.22 293.468L124.663 296.535H124.665Z" fill="#D6906E"/>
<path d="M155.204 244.048L166.773 185.585C167.463 182.103 165.228 178.71 161.756 177.97C158.289 177.23 154.869 179.408 154.071 182.862L143.863 227.078L138.959 228.016L122.013 183.277C120.822 180.133 117.253 178.614 114.162 179.935C111.457 181.092 110.014 184.061 110.778 186.903L127.414 248.842L155.206 244.046L155.204 244.048Z" fill="#D6906E"/>
<path d="M156.099 239.436C156.099 239.436 127.624 236.716 127.389 248.864C127.389 248.864 126.777 257.956 144.755 259.255C144.755 259.255 133.541 262.406 133.084 274.937" stroke="#BF704F" stroke-width="0.0138338" stroke-miterlimit="10"/>
<path d="M184.048 382.811L196.099 422.033" stroke="#BF704F" stroke-width="0.0138338" stroke-miterlimit="10"/>
<path d="M433.568 370.816C433.568 370.816 478.655 529.387 495.92 662.277L524.971 656.769C524.971 656.769 520.531 462.046 491.232 341.587L433.566 370.816H433.568Z" fill="#D6906E"/>
<path d="M524.75 650.12C524.75 650.12 568.468 714.673 515.999 743.69C512.544 745.603 508.177 744.822 505.621 741.812L505.283 741.412C502.461 738.089 502.781 733.221 505.842 730.118C513.294 722.563 523.318 706.904 507.342 686.454C507.342 686.454 498.958 688.593 500.362 705.242C500.725 709.526 497.164 713.135 492.886 712.729C489.966 712.451 487.567 710.362 486.854 707.515C484.103 696.541 479.552 669.321 497.097 654.698L524.751 650.116L524.75 650.12Z" fill="#D6906E"/>
<path d="M461.326 299.313C461.326 299.313 502.8 312.927 510.084 378.295L442.686 403.851L427.504 362.393L461.326 299.313Z" fill="#DD4B87"/>
<path d="M421.512 284.208L461.985 299.512L413.824 481.676H275.498L238.971 286.115L286.931 274.983L421.512 284.208Z" fill="#DD4B87"/>
<path d="M413.832 500.335H275.506V481.586H413.832V500.335Z" fill="#1A1A1A"/>
<path d="M256.639 380.66L245.882 331.969" stroke="#C12D70" stroke-width="0.0276677" stroke-miterlimit="10"/>
<path d="M437.85 390.674L452.381 336.415" stroke="#C12D70" stroke-width="0.0276677" stroke-miterlimit="10"/>
<path d="M368.282 262.94L421.524 284.17C421.524 284.17 415.333 305.13 352.854 305.131C298.42 305.133 286.943 274.946 286.943 274.946L338.658 262.94H368.282Z" fill="#D6906E"/>
<path d="M717.107 531.863L775.009 828H662.773L619.742 632.288L609.84 631.687L609.691 828H497.785L503.494 531.863H717.107Z" fill="#DD4B87"/>
<path d="M590.899 630.313H654.796" stroke="#C12D70" stroke-width="0.0276677" stroke-miterlimit="10"/>
<path d="M768.681 323.937L874.296 296.928C895.335 291.019 907.776 269.358 902.28 248.207C896.619 226.418 874.141 213.548 852.484 219.698L746.738 249.726L768.681 323.938V323.937Z" fill="#D6906E"/>
<path d="M780.3 230.528L677.144 244.079L706.645 349.371L805.156 328.862L780.3 230.528Z" fill="#CFBAEB"/>
<path d="M829.564 99.4331C832.203 82.8792 825.787 61.7267 825.787 61.7267L828.135 24.581C828.592 21.0612 826.329 17.7616 822.882 16.9181C819.17 16.0102 815.418 18.2647 814.478 21.9708L811.376 45.9571L808.092 45.8962L803.627 7.34288C803.283 2.65436 798.954 -0.706203 794.327 0.127161C790.475 0.819938 787.707 4.22115 787.811 8.13221L790.751 49.8614L787.374 50.5203L775.554 8.94016C774.282 4.11613 769.24 1.32978 764.478 2.82205C760.1 4.19405 757.524 8.71488 758.577 13.1815L770.788 60.8036L766.501 61.9655L750.469 28.5191C748.608 24.6471 743.814 23.2225 740.142 25.4533C737.196 27.242 735.911 30.8516 737.061 34.0986L753.316 78.5972L739.861 78.2585C733.567 78.2822 728.661 83.7262 729.293 89.9899C729.739 94.4125 732.881 98.0966 737.179 99.2315L754.888 103.517C754.888 103.517 766.833 120.108 786.679 127.308C786.679 127.308 827.551 112.062 829.564 99.4347V99.4331Z" fill="#D6906E"/>
<path d="M753.325 78.612C753.325 78.612 779.002 77.1045 794.251 91.5698" stroke="#D8857C" stroke-width="0.0138338" stroke-miterlimit="10"/>
<path d="M900.888 243.859L829.575 99.4211L784.566 118.362L829.916 277.261L900.888 243.859Z" fill="#D6906E"/>
<path d="M816.412 229.962L823.399 254.44" stroke="#D8857C" stroke-width="0.0138338" stroke-miterlimit="10"/>
<path d="M584.962 238.368L500.533 255.84L503.487 531.804H717.099L723.801 248.273L643.429 241.322L584.962 238.368Z" fill="#CFBAEB"/>
<path d="M721.438 346.342V310.711" stroke="#AA8ADB" stroke-width="0.0276677" stroke-miterlimit="10"/>
<path d="M557.725 373.043C543.28 373.043 531.571 361.333 531.571 346.888V320.734H583.877V346.888C583.877 361.333 572.168 373.043 557.725 373.043Z" fill="#AA8ADB"/>
<path d="M439.304 325.989L378.399 436.287C367.738 455.592 374.496 479.878 393.594 490.903C412.456 501.791 436.552 495.8 448.119 477.346L511.347 376.465L439.304 325.99V325.989Z" fill="#D6906E"/>
<path d="M420.433 341.335L507.81 397.406L521.831 330.437C536.618 306.56 555.412 277.752 531.77 262.594C507.822 247.237 475.958 254.248 460.663 278.235L420.432 341.335H420.433Z" fill="#CFBAEB"/>
<path d="M502.069 393.737V318.714" stroke="#AA8ADB" stroke-width="0.0276677" stroke-miterlimit="10"/>
<path d="M408.348 495.907L568.248 491.533L579.249 439.861L398.527 417.003L408.348 495.907Z" fill="#D6906E"/>
<path d="M479.535 427.238L437.891 422.014" stroke="#D8857C" stroke-width="0.0138338" stroke-miterlimit="10"/>
<path d="M568.593 442.021C568.593 442.021 589.051 414.354 613.123 441.916L603.55 460.921L568.591 442.02L568.593 442.021Z" fill="#D6906E"/>
<path d="M592.693 412.683L586.374 451.382L635.157 456.809L642.901 419.641C643.736 415.632 640.961 411.768 636.896 411.275L600.43 406.87C596.711 406.421 593.298 408.983 592.693 412.683Z" fill="#1A1A1A"/>
<path d="M578.912 438.666L636.637 440.102C643.328 440.268 648.665 445.739 648.665 452.432C648.665 457.166 645.956 461.482 641.693 463.54L638.605 465.03C638.605 465.03 644.503 508.74 609.814 513.943C575.125 519.146 555.699 491.742 555.699 491.742L578.914 438.666H578.912Z" fill="#D6906E"/>
<path d="M646.642 241.464L645.858 154.304H582.569L581.16 239.19L646.642 241.464Z" fill="#D6906E"/>
<path d="M577.328 179.722C574.035 172.197 599.3 221.409 625.097 218.645C647.218 216.275 648.132 176.209 648.132 176.209C648.132 176.209 640.282 188.867 616.934 188.894C590.894 188.927 577.328 179.722 577.328 179.722Z" fill="#3A1616"/>
<path d="M679.515 106.251C672.742 145.109 650.155 177.809 613.935 177.809C577.716 177.809 552.819 145.485 548.356 106.251C543.293 61.7374 577.718 32.1699 613.935 32.1699C650.155 32.1699 686.472 66.3514 679.515 106.251Z" fill="#2F1118"/>
<path d="M670.632 126.487C670.632 126.487 675.354 118.976 685.093 122.671C694.833 126.365 690.427 150.017 675.818 153.032C675.818 153.032 670.581 154.174 666.475 150.588C666.475 150.588 670.068 133.118 670.632 126.487Z" fill="#D6906E"/>
<path d="M683.172 131.047C683.172 131.047 675.013 128.325 669.223 140.339" stroke="#161311" stroke-width="0.0152561" stroke-miterlimit="10" stroke-linecap="round" stroke-linejoin="round"/>
<path d="M558.794 126.487C558.794 126.487 554.071 118.976 544.332 122.671C534.593 126.365 538.998 150.017 553.607 153.032C553.607 153.032 558.845 154.174 562.95 150.588C562.95 150.588 559.358 133.118 558.794 126.487Z" fill="#D6906E"/>
<path d="M546.282 131.047C546.282 131.047 554.441 128.325 560.231 140.339" stroke="#161311" stroke-width="0.0152561" stroke-miterlimit="10" stroke-linecap="round" stroke-linejoin="round"/>
<path d="M671.534 106.083C671.539 121.241 669.971 152.951 660.145 171.775C650.92 189.447 635.663 198.957 615.659 199.525C599.698 199.977 576.712 185.016 568.812 169.842C556.869 146.906 557.441 106.364 557.441 106.364C557.441 106.364 557.441 52.2158 613.869 52.2158C673.301 52.2158 671.536 106.083 671.536 106.083H671.534Z" fill="#D6906E"/>
<path d="M594.81 124.474C594.81 126.882 592.859 128.834 590.45 128.834C588.042 128.834 586.09 126.882 586.09 124.474C586.09 122.065 588.043 120.114 590.45 120.114C592.859 120.114 594.81 122.067 594.81 124.474Z" fill="#1A1A1A"/>
<path d="M639.872 124.474C639.872 126.882 637.921 128.834 635.512 128.834C633.104 128.834 631.153 126.882 631.153 124.474C631.153 122.065 633.104 120.114 635.512 120.114C637.921 120.114 639.872 122.067 639.872 124.474Z" fill="#1A1A1A"/>
<path d="M602.248 106.746L571.299 114.741C571.299 114.741 572.704 106.06 585.366 102.907C598.027 99.7509 602.246 106.746 602.246 106.746H602.248Z" fill="#1A1A1A"/>
<path d="M621.897 106.746L652.847 114.741C652.847 114.741 651.441 106.06 638.78 102.906C626.118 99.7505 621.897 106.746 621.897 106.746Z" fill="#1A1A1A"/>
<path d="M608.924 135.552V146.611H616.949" stroke="#161311" stroke-width="0.0152561" stroke-miterlimit="10" stroke-linecap="round" stroke-linejoin="round"/>
<path d="M638.193 155.921H590.819C590.819 155.921 592.14 168.376 613.277 168.413C632.757 168.449 638.193 155.921 638.193 155.921Z" fill="white"/>
<path d="M558.799 126.511C558.799 126.511 579.924 94.0966 563.33 70.2407C563.33 70.2407 552.874 70.3999 553.243 111.729L558.799 126.513V126.511Z" fill="#2F1118"/>
<path d="M670.616 126.511C670.616 126.511 649.491 94.0966 666.085 70.2407C666.085 70.2407 676.539 70.3999 676.172 111.729L670.616 126.513V126.511Z" fill="#2F1118"/>
<path d="M557.679 68.6574C557.679 68.6574 584.96 99.5156 641.163 93.4704C691.352 88.0721 695.702 52.8777 683.752 38.9646C666.679 19.0858 629.01 26.4743 608.878 48.6719L557.679 68.6574Z" fill="#2F1118"/>
<path d="M581.119 239.176L614.484 282.084L646.602 241.449L581.119 239.176Z" fill="#D6906E"/>
<path d="M581.121 233.114L561.438 243.241L583.681 287.84L605.925 271.069L581.121 233.114Z" fill="#AA8ADB"/>
<path d="M646.757 233.114L668.921 243.539L645.504 287.84L623.434 270.581L646.757 233.114Z" fill="#AA8ADB"/>
</svg>
