<svg version="1.1" id="Layer_1" xmlns="http://www.w3.org/2000/svg" x="0" y="0" width="326" height="280" xml:space="preserve"><style>.st0{fill:#ed6061}.st1{fill:#223771}.st3{fill:#fff}</style><path class="st0" d="M130.4 130.9c0-.8-.1-1.7-.1-2.6 0 .8-.1 1.7-.1 2.6h.2zM170.9 159.7c-1.1-1.2-2.5-2.2-4.1-3-1.5-.7-3.1-1-4.9-1-1.7.1-3.4.6-4.9 1.4s-2.7 2-3.8 3.4c-1 1.4-1.7 3-2 4.7.5.1 1.1.3 1.7.4 3.4.6 6.9.7 10.4.5 3.5-.3 6.9-1 10.3-2.1-.7-1.6-1.6-3.1-2.7-4.3z"/><path class="st0" d="M189.7 132.5c-.1-5.2-.3-10.5-.8-15.8-5.9.3-11.9.2-17.8-.5s-11.8-1.8-17.6-3.2c-5.8-1.4-11.6-2.9-17.4-4.6-1 10.9-1.5 21.8-1.3 32.8l1.4 7.7c-.3.1-.7.2-1.2.3 0 1.2.1 2.5.2 3.7 1.5 2 3.1 3.8 4.8 5.6 1.7 1.7 3.6 3.2 5.6 4.5.7-2.4 1.8-4.6 3.4-6.5 1.6-1.9 3.5-3.5 5.7-4.7 2.2-1.1 4.6-1.8 7.2-1.8 2.6 0 5 .4 7.3 1.5s4.2 2.4 5.8 4.3c1.6 1.8 2.9 3.9 3.8 6.2.7-.3 1.4-.7 2-1 1.7-.9 3.4-2 4.9-3.2s3-2.6 4.2-4.1c0-1.1 0-2.3-.1-3.5-1-.1-2-.3-3-.6l2.9-17.1zm-7.3.1c.2-.4.5-.6.9-.6s.7.2 1 .5c.2.3.3.8.1 1.2-.7 1.6-1.8 2.8-3.1 3.6-1.3.8-2.7 1.2-4.2 1.2s-2.9-.3-4.3-1.1-2.4-1.8-3.2-3.4c-.2-.4-.2-.8 0-1.2.2-.3.5-.5 1-.6.4 0 .7.1 1 .6.8 1.5 2 2.5 3.4 3 1.4.4 2.8.4 4.1-.2 1.5-.3 2.6-1.4 3.3-3zm-24.3-1.4c.3.2.4.6.3 1.1-.5 2-1.5 3.5-2.9 4.6-1.3 1-2.9 1.6-4.6 1.6-1.6 0-3.2-.3-4.7-1.2-1.4-.9-2.6-2.3-3.3-4.2-.1-.5 0-.9.2-1.1.3-.2.6-.3 1.1-.3.4 0 .7.3.9.8.5 1.4 1.3 2.4 2.4 3 1 .6 2.2.9 3.3.8 1.2-.1 2.3-.5 3.2-1.3.9-.7 1.6-1.8 2-3.3.1-.5.4-.7.8-.8.6 0 .9.1 1.3.3zM183 219.3c-1.7-3.9-3-8.3-3.8-13.1-.8-4.8-1.4-9.6-1.7-14.6-2.4 1.3-5.1 2.3-7.8 2.8-2.7.6-5.5.8-8.4.6s-5.6-.7-8.2-1.7c-1.3-.5-2.5-1-3.8-1.5 0 4.5-.3 9-.9 13.4-.5 4.4-1.5 8.6-3.1 12.6-1.5 3.9-3.8 7.4-6.7 10.5l23.8 28.9L190 229c-3-2.5-5.3-5.7-7-9.7zM195.5 133.6c-.4 2.1-.6 4-.8 5.8-.1 1.7-.1 3.3-.1 4.9 0-.2 0-.4.1-.7l-.1 4.1c0 .7 0 1.4-.1 2.1 2.3-.3 4.3-1.2 6-2.7.8-.8 1.5-1.9 1.9-3.2.4-1.3.6-2.7.6-4.2 0-1.4-.3-2.8-.8-4.1-.5-1.2-1.3-2.1-2.3-2.8-1.2-.6-2.5-1.1-4-1.3-.2.7-.3 1.4-.4 2.1z"/><path class="st0" d="M187 149.4l3 .6c-.1-5.8-.2-11.6-.3-17.5l-2.7 16.9zM136.1 148.7l-1.4-7.7c0 2.6.1 5.3.2 8 .4 0 .8-.1 1.2-.3zM130.4 130.9h-.3c-1.2 0-2.5 0-3.8.3-1.2.2-2.3.7-3.4 1.3-1 .6-1.7 1.6-2.2 2.8-.4 1.2-.7 2.6-.7 4.1 0 1.4.2 2.8.7 4.1.4 1.3 1.1 2.4 2 3.2 1.2 1 2.5 1.7 4 2.2 1.5.4 3 .6 4.6.5-.2-6.1-.5-12.3-.9-18.5z"/><path class="st1" d="M125.3 70.6c-1.5-.9-2.8-2.1-3.8-3.6 2.5 10 4.4 20.2 5.7 30.4s2.3 20.5 2.9 30.9c0 .8.1 1.7.2 2.6.3 6.2.7 12.4.9 18.6 0 .9 0 1.8.1 2.6v-4.6c1.1 1.8 2.3 3.5 3.6 5.2 0-1.2-.1-2.5-.2-3.7-.1-2.6-.2-5.3-.2-8-.1-10.9.3-21.9 1.4-32.8 5.7 1.6 11.5 3.1 17.4 4.6 5.8 1.4 11.7 2.5 17.6 3.2 5.9.7 11.8.9 17.8.5.4 5.2.7 10.5.8 15.8l.3 17.4c0 1.2.1 2.3.1 3.5 1.1-1.3 2-2.7 2.8-4.2.7-1.5 1.3-3.1 1.5-4.8 0-1.6 0-3.2.2-5 .1-1.7.3-3.6.8-5.7l.3-2.1c1.8-13.3 2.6-26.8 2.5-40.3 0-1.8 0-3.6-.1-5.4-.1-1.8-.4-3.6-1-5.3-.9-2.8-2.3-5.2-4.3-7.3-2-2.1-4.4-3.8-7-5.1-2.7-1.3-5.5-2.1-8.4-2.6-4.3-.5-8.7-.4-13 .4-4.3.8-8.6 1.9-12.7 3.4-2.5.9-5.1 1.7-7.7 2.5-2.6.8-5.3 1.3-8 1.4-1.8.1-3.6 0-5.4-.5-1.9-.4-3.5-1.1-5.1-2z"/><path class="st1" d="M184.4 132.6c-.2-.3-.6-.5-1-.6-.4 0-.7.1-.9.6-.8 1.5-1.9 2.6-3.2 3.2-1.3.5-2.7.6-4.1.1-1.4-.4-2.5-1.5-3.4-3-.2-.4-.6-.6-1-.6s-.7.2-1 .6c-.2.3-.2.7 0 1.2.8 1.5 1.9 2.7 3.3 3.4s2.7 1.1 4.2 1c1.5 0 2.9-.4 4.2-1.2 1.3-.8 2.3-2 3.1-3.6.1-.4 0-.8-.2-1.1zM158 131.2c-.3-.2-.6-.4-1.1-.3-.4 0-.7.3-.8.8-.3 1.4-1 2.5-2 3.2-.9.8-2 1.2-3.2 1.3-1.2 0-2.3-.2-3.3-.8-1-.6-1.8-1.6-2.4-3-.2-.4-.5-.7-.9-.8-.4 0-.8 0-1.1.3-.3.2-.3.6-.2 1.1.7 1.9 1.8 3.3 3.3 4.2 1.4.9 3 1.3 4.7 1.3 1.7 0 3.2-.6 4.6-1.6s2.3-2.6 2.8-4.6c.1-.4 0-.8-.4-1.1z"/><path d="M70.5 238.5c-6.2 1.2-12 2.5-17.5 3.9-5.4 1.3-10.2 2.6-14.2 3.9V280h248.6v-39.4l-97-11.9-28.1 28.6-24.9-30.3s-1.4.2-4 .6-6.1.9-10.6 1.6-9.6 1.5-15.3 2.5c-5.7.9-11.7 2-18 3.1-6.6 1.2-12.8 2.4-19 3.7z" fill="#e288a8"/><path class="st1" d="M131.5 152.2c0 1.3 0 2.6-.1 3.8v4.3c0 1.6.2 3.9.5 6.6.4 5.1 1.5 9.2 3 12.4 1.5 3.2 3.5 5.7 5.9 7.7 2.4 1.9 5.1 3.5 8.2 4.7 1.2.5 2.5 1 3.8 1.5 2.6.9 5.4 1.5 8.2 1.7 2.8.1 5.6 0 8.4-.6 2.7-.6 5.4-1.5 7.8-2.9 3-1.5 5.6-3.6 7.8-6.2 2.5-3 4.4-6.4 5.6-10.2s2.1-7.6 2.5-11.7c.4-4 .7-8 .9-12l.3-7.7c0 .1 0 .3-.1.5-.2 1.7-.8 3.3-1.5 4.8s-1.7 2.9-2.8 4.2c-1.2 1.5-2.7 2.8-4.2 4.1s-3.2 2.3-4.9 3.3c-.6.3-1.3.7-2 1 .5 1.4.9 3 1.1 4.6 0 .9-.1 1.6-.7 2.1-.5.4-1.2.7-1.9.7-.8 0-1.5-.3-2.1-.7s-1-1.1-1.1-2.1c-.1-.8-.3-1.7-.6-2.5-3.3 1.1-6.7 1.8-10.2 2.1-3.5.3-7 .1-10.4-.5-.5-.1-1.1-.2-1.7-.4-.1.7-.2 1.4-.2 2.2 0 .9-.3 1.7-.9 2.1-.6.5-1.3.7-2 .7s-1.4-.2-2-.7c-.6-.4-.9-1.2-.9-2.1 0-1.5.2-3.1.6-4.6-2-1.2-3.9-2.7-5.6-4.4-1.7-1.7-3.3-3.6-4.8-5.6-1.3-1.7-2.5-3.4-3.6-5.2-.3 2.2-.3 3.7-.3 5z"/><path class="st1" d="M161.9 149.8c-2.6.1-5 .7-7.2 1.9-2.2 1.1-4.1 2.7-5.7 4.6-1.6 1.9-2.7 4.1-3.4 6.5-.4 1.5-.6 3-.6 4.6 0 .9.3 1.7.9 2.1.6.5 1.3.7 2 .7s1.4-.2 2-.7c.5-.4.8-1.2.9-2.1 0-.7 0-1.4.2-2.2.3-1.7 1-3.2 2-4.6 1-1.4 2.3-2.6 3.8-3.4 1.5-.8 3.1-1.3 4.9-1.4 2.6 0 4.9.7 7 2.3 2.1 1.5 3.6 3.5 4.5 6 .3.8.5 1.6.6 2.5.1.9.5 1.6 1.1 2.1s1.4.7 2.1.7c.7 0 1.4-.2 1.9-.7.5-.4.7-1.1.7-2.1-.2-1.6-.6-3.2-1.1-4.6-.9-2.3-2.2-4.4-3.8-6.2-1.6-1.8-3.6-3.3-5.9-4.3s-4.3-1.8-6.9-1.7z"/><path class="st3" d="M168.2 161c-.4-.2-.8-.2-1.3 0-1.7 1.1-3.6 1.8-5.5 1.9-1.9.1-3.9-.2-5.7-1.2-.5-.2-1-.2-1.4.1-.4.3-.6.7-.7 1.1 0 .5.2.9.7 1.2 2.3 1.1 4.7 1.7 7.2 1.5 2.4-.1 4.8-.9 6.9-2.3.4-.3.7-.8.6-1.3-.2-.3-.4-.7-.8-1zM137.5 162.2c-.4.2-.6.6-.6 1.2.1 2 .3 4 .5 6 0 .6.3 1 .8 1.2.4.2.9.2 1.3 0s.6-.6.6-1.2c-.2-2-.4-4-.5-6 0-.6-.3-1-.8-1.2s-.8-.2-1.3 0zM143.1 172.6c-.1-.5-.4-.9-.9-1-.4 0-.9 0-1.3.4-.4.3-.6.7-.5 1.3.5 2.7.9 5.5 1.4 8.2.1.5.4.9.9 1 .4 0 .9 0 1.3-.4.4-.3.5-.7.5-1.3-.5-2.7-.9-5.5-1.4-8.2zM150.7 173.4c-.1-1.3-.3-2.6-.4-3.9 0-.4-.1-.7-.4-1-.2-.2-.5-.4-1-.4-.3 0-.7.1-1 .4-.3.2-.4.6-.4 1 .1 1.3.3 2.6.4 3.9 0 .4.1.7.4 1 .2.2.6.4 1 .4.3 0 .7-.1 1-.4.3-.3.4-.6.4-1zM153 182.8c-.4.3-.5.7-.4 1.3l.9 3c.2.5.5.9 1 1 .5 0 .9 0 1.3-.3s.5-.8.4-1.4l-.9-3c-.2-.5-.5-.9-1-.9-.5-.1-.9 0-1.3.3zM160 171.5c-.4.3-.5.7-.4 1.3.4 2.1.8 4.3 1.2 6.5.1.6.4.9.9 1 .4 0 .9 0 1.3-.3s.5-.7.5-1.3c-.4-2.2-.8-4.4-1.2-6.5-.1-.5-.5-.9-.9-1-.5-.1-1 0-1.4.3zM170.6 187.7c-.1-1.3-.3-2.6-.4-3.9 0-.4-.1-.7-.4-1-.2-.2-.5-.4-1-.4-.3 0-.7.1-1 .4s-.4.6-.4 1c.1 1.3.3 2.6.4 3.9 0 .4.2.7.4 1 .2.2.5.4.9.4.3 0 .7-.1 1-.4.4-.3.6-.6.5-1zM174.4 171.1c-.2.2-.4.6-.4 1 .1 1.6.3 3.2.5 4.8 0 .4.1.7.4 1 .2.2.5.4 1 .4.3 0 .7-.1 1-.4.2-.2.4-.6.4-1-.2-1.6-.4-3.2-.5-4.8 0-.4-.1-.7-.4-1-.2-.2-.5-.4-1-.4-.4 0-.7.1-1 .4zM182.2 165.9c-.4.3-.5.7-.4 1.3.3 1.6.6 3.2.9 4.7.1.6.4.9.9 1 .4 0 .9 0 1.3-.3.3-.3.5-.8.4-1.4-.3-1.5-.6-3.1-.9-4.7-.1-.5-.5-.9-.9-1-.4-.1-.9 0-1.3.4zM182.8 182.5c0-.5 0-1.1-.1-1.6-.1-.3-.3-.6-.6-.8-.3-.2-.7-.2-1.1-.1-.3.1-.6.3-.8.6-.1.3-.2.7-.1 1.1V182c0 .1 0 .1 0 0 0 .1 0 .2-.1.3 0 0-.1.2-.2.3-.2.3-.2.7-.1 1 .1.3.3.6.6.8.3.2.7.2 1 .1.3-.1.6-.3.8-.6.4-.2.6-.8.7-1.4zM190.4 228.4c-.4-.1-.9 0-1.3.3-8.8 9.5-18.4 18.3-28.7 26.2-8.6-8.4-16-17.9-22.1-28.4-.3-.5-.7-.7-1.2-.7s-.9.3-1.2.7c-.2.4-.2.8 0 1.4 6.3 11 14.1 21 23.3 29.8.2.2.5.3.8.4.3 0 .6 0 .8-.2 10.9-8.1 20.9-17.2 30.2-27.2.3-.4.4-.9.3-1.4-.1-.4-.4-.8-.9-.9z"/><path class="st3" d="M180.5 253.4c-3.6 3.2-7.5 6.2-11.5 8.9-1.9 1.2-3.9 2.6-5.7 3.9-1.5 1.1-2.9 2.3-4.1 3.6-11.7-12.6-21.9-26.4-30.6-41.3-.3-.5-.7-.7-1.2-.7s-.9.3-1.2.7c-.2.4-.2.8 0 1.4 9 15.5 19.7 29.8 32 42.9.2.2.6.4.9.4.4 0 .7-.1 1-.4 1.7-1.8 3.5-3.4 5.5-4.9 2-1.4 4.1-2.8 6.2-4.2 4-2.7 7.8-5.7 11.3-8.9 7.1-6.6 13.2-14.2 18-22.7.2-.5.2-1 0-1.4-.3-.4-.7-.6-1.2-.7-.4 0-.8.2-1.2.7-4.9 8.6-11 16.1-18.2 22.7z"/></svg>